<svg width="165" height="115" viewBox="0 0 165 115" fill="none" xmlns="http://www.w3.org/2000/svg">
<path d="M163.5 88.5375C163.5 88.4375 163.4 88.3375 163.3 88.3375C163 87.9375 161.2 84.7375 159 57.0375C158.5 51.1375 156.8 46.6375 154 43.3375C154 41.9375 153.7 36.9375 150.3 33.1375C151 31.1375 152.7 24.8375 149.5 18.1375C151.6 16.3375 157.7 10.0375 155.2 0.7375C155.1 0.4375 154.8 0.1375 154.5 0.0375C154.2 -0.0625 153.8 0.0375001 153.5 0.3375L148.5 5.2375C147.4 5.4375 144.6 6.2375 141.7 10.0375C139.6 9.1375 133.5 7.2375 125.4 10.4375C123.7 8.6375 121.4 7.3375 118.6 7.8375C118.1 7.7375 115.4 7.3375 112.9 3.4375C112.7 3.1375 112.2 2.9375 111.8 3.0375C111.4 3.1375 111.1 3.4375 111 3.8375C110.9 4.3375 109.6 15.3375 117.7 20.7375C116.6 22.7375 114.6 27.9375 118.2 33.8375C118.8 35.3375 119.6 38.5375 118.5 39.5375L118.4 39.6375C116.8 41.0375 112.6 46.3375 112.1 54.6375C111.4 64.6375 115.9 75.2375 125.5 86.2375C126.4 87.2375 127.4 88.9375 127.9 90.1375C122 87.6375 115.6 86.9375 108.8 88.0375C108.3 88.1375 108 88.5375 108 88.9375C108 89.4375 108.3 89.8375 108.7 89.9375C113.3 91.2375 118.2 93.2375 123.3 95.9375C123.2 96.2375 123.1 96.5375 123 96.7375C123 96.9375 122.9 97.0375 122.9 97.2375C122.7 98.1375 122.4 99.5375 123.5 100.838C124.9 102.537 128.3 103.438 134.5 103.537C134.9 103.537 135.2 103.537 135.6 103.537C142.7 108.537 147.4 112.937 148.3 113.737L148.4 113.838C148.6 113.938 148.8 114.037 149 114.037C149.3 114.037 149.5 113.937 149.7 113.737C149.8 113.637 149.9 113.537 149.9 113.338C149.9 113.238 150 113.137 150 112.938C150 112.838 150 112.637 149.9 112.537C149.8 112.237 149.2 110.938 148.2 109.037C149.8 110.137 151.2 110.438 152.5 110.037C153.2 109.838 153.7 109.438 154.1 108.938C154.4 109.438 154.9 109.937 155.5 110.237C156.2 110.637 156.9 110.838 157.8 110.838C158.4 110.838 159.1 110.738 159.9 110.438C160.7 110.137 161.2 109.638 161.6 108.838C163 105.338 159 96.4375 156.9 92.3375C157.8 93.4375 158.9 94.4375 160.3 94.8375C160.9 95.0375 161.5 95.1375 162 95.1375C162.9 95.1375 163.5 94.8375 164 94.3375C165.3 92.7375 163.8 89.2375 163.5 88.5375ZM145.6 21.4375C145.6 21.4375 147.9 24.5375 147.2 27.6375C146.7 29.5375 145.3 31.0375 142.8 32.2375C137.9 34.5375 135.5 36.2375 134.2 37.4375C134.7 36.3375 135.3 34.4375 135.2 31.5375C135.2 31.0375 135.1 30.6375 135 30.2375C135.1 30.2375 135.2 30.2375 135.3 30.2375C135.7 30.2375 136 29.9375 136.1 29.5375C136.1 29.5375 136.1 29.4375 136.2 29.3375C136.8 29.7375 137.6 30.0375 138.6 30.0375C139.6 30.0375 140.7 29.7375 142 28.9375C143.2 28.1375 144 27.1375 144.2 25.8375C144.4 24.3375 143.8 22.9375 143.3 22.1375C144 21.6375 144.9 21.0375 145.8 20.4375L145.6 20.7375C145.5 21.0375 145.5 21.2375 145.6 21.4375ZM120.9 22.5375C121.3 22.8375 121.8 23.0375 122.1 23.2375C121.8 24.2375 121.4 26.1375 122 27.6375C122.4 28.7375 123.3 29.5375 124.4 29.9375C125.4 30.3375 126.2 30.4375 127 30.4375C128.2 30.4375 129.2 30.0375 129.9 29.5375C130.1 29.6375 130.3 29.7375 130.5 29.8375C130.7 29.8375 130.8 29.8375 131 29.7375C130.9 30.2375 130.8 30.7375 130.8 31.4375C130.8 33.9375 131.4 35.7375 132 36.8375C129.6 35.0375 125.6 33.6375 125 33.4375C122.4 32.3375 120.7 30.7375 120 28.7375C119 25.7375 120.7 22.7375 120.7 22.7375C120.9 22.6375 120.9 22.6375 120.9 22.5375ZM133.2 37.0375C132.7 36.1375 131.8 34.3375 131.8 31.5375C131.8 29.5375 132.5 28.8375 132.9 28.8375C133.4 28.8375 134.1 29.6375 134.2 31.5375C134.3 34.2375 133.7 36.1375 133.2 37.0375ZM123.9 24.3375C126.5 25.9375 127.9 27.1375 128.8 28.0375C128.2 28.4375 127.1 28.8375 125.2 28.1375C124.5 27.8375 124.1 27.5375 123.9 26.9375C123.6 26.1375 123.7 25.1375 123.9 24.3375ZM141.7 23.4375C142 24.0375 142.4 24.8375 142.3 25.6375C142.2 26.3375 141.8 26.8375 141 27.3375C139.1 28.5375 138 28.1375 137.3 27.7375C138.2 26.6375 139.5 25.1375 141.7 23.4375ZM113.7 11.6375C115.1 14.5375 117.5 17.4375 121.4 18.4375H121.5C121.7 18.4375 121.9 18.2375 122 18.0375C122.1 17.7375 121.9 17.5375 121.6 17.4375C116.2 16.1375 114 10.4375 113.1 6.8375C115.9 9.7375 118.5 9.8375 118.7 9.8375C118.8 9.8375 118.9 9.8375 118.9 9.8375C121.1 9.3375 123 10.6375 124.4 12.2375C126.2 14.2375 127.3 16.7375 127.3 16.8375C127.5 17.3375 128.1 17.6375 128.6 17.3375C129.1 17.1375 129.4 16.5375 129.1 16.0375C129 15.8375 128.2 13.9375 126.8 12.0375C133.4 9.6375 138.5 10.9375 140.5 11.7375C139.8 12.8375 139.1 14.0375 138.5 15.4375C138.3 15.9375 138.5 16.5375 139 16.7375C139.5 16.9375 140.1 16.7375 140.3 16.2375C144.2 7.6375 149 7.2375 149 7.2375C149.3 7.2375 149.5 7.1375 149.7 6.9375L153.5 3.2375C153 6.6375 151.2 13.1375 145.8 16.4375C145.6 16.5375 145.5 16.9375 145.6 17.1375C145.7 17.3375 145.9 17.3375 146 17.3375C146.1 17.3375 146.2 17.3375 146.3 17.2375C150.5 14.7375 152.6 10.5375 153.6 7.0375C152.8 13.1375 148.1 16.7375 147.7 17.0375C145.1 18.5375 143.1 19.9375 141.4 21.1375C138 23.7375 136.3 25.7375 135.4 27.1375C135.4 27.1375 135.4 27.1375 135.4 27.2375C135.4 27.2375 135.4 27.3375 135.3 27.3375C134.7 26.7375 134 26.4375 133.3 26.4375C132.4 26.4375 131.6 26.8375 131 27.2375C129.7 25.5375 127 23.4375 119.8 19.4375C116.2 17.5375 114.5 14.5375 113.7 11.6375ZM113.8 89.4375C118.4 89.2375 122.9 90.0375 127 91.8375C126.2 92.4375 125.2 93.3375 124.4 94.2375C120.7 92.3375 117.2 90.7375 113.8 89.4375ZM136.2 97.5375C140.5 101.237 143.6 105.438 145.5 108.637C143.2 106.737 140.1 104.237 136.4 101.637C136.4 101.637 136.3 101.637 136.3 101.537C135.4 100.938 134.4 100.237 133.4 99.6375C133.7 99.3375 134.9 98.4375 136.2 97.5375ZM162.3 93.2375C162.2 93.4375 161.7 93.4375 160.7 93.1375C156.2 91.7375 155.9 83.3375 155.9 83.2375C155.9 82.6375 155.4 82.2375 154.9 82.2375C154.3 82.2375 153.9 82.7375 153.9 83.2375C153.9 83.4375 154 86.4375 155.1 89.3375C154.9 89.7375 154.3 90.3375 152.8 90.1375C152 90.0375 151.4 89.6375 151 89.0375C150.3 87.9375 150.4 86.1375 151.2 83.8375C151.4 83.3375 151.1 82.8375 150.7 82.6375C150.2 82.4375 149.7 82.6375 149.4 83.0375C149 83.6375 148.4 84.4375 147.6 84.6375C147 84.8375 146.2 84.6375 145.4 84.1375C143.4 82.9375 143.1 80.9375 144.6 78.3375C144.8 77.9375 144.7 77.3375 144.4 77.0375C144 76.7375 143.5 76.7375 143.1 77.0375C141.6 78.3375 140 78.3375 138.2 77.0375C136.6 75.8375 136.1 74.2375 136.8 72.2375C136.9 71.8375 136.8 71.3375 136.4 71.1375C136 70.8375 135.6 70.9375 135.2 71.1375C134.3 71.8375 133.2 71.9375 131.8 71.3375C131.4 71.0375 129.3 68.9375 132.6 64.0375C132.6 64.0375 132.7 63.9375 132.7 63.8375C132.8 63.6375 132.9 63.5375 132.9 63.5375C133.2 63.0375 133 62.4375 132.6 62.1375C132.1 61.8375 131.5 61.9375 131.2 62.4375L131 62.7375C130 64.2375 129 64.9375 128.5 64.8375C128.2 64.7375 127.7 64.1375 127.4 62.6375C127.2 61.5375 127.1 60.4375 127.2 59.1375C127.4 57.0375 128 53.1375 130 50.4375C130.3 50.0375 130.3 49.3375 129.8 49.0375C129.4 48.7375 128.7 48.7375 128.4 49.2375C126.2 52.1375 125.4 56.1375 125.2 59.0375C125.1 60.4375 125.2 61.8375 125.5 63.1375C125.7 63.9375 126.3 66.5375 128.2 66.8375C128.5 66.9375 128.8 66.9375 129.1 66.8375C127.9 71.1375 130.7 73.0375 130.7 73.1375L130.8 73.2375C132.2 73.9375 133.4 73.9375 134.4 73.7375C134.3 75.7375 135.2 77.4375 136.9 78.7375C138.5 79.9375 140.1 80.3375 141.7 79.9375C141.1 82.4375 142 84.5375 144.3 85.8375C145.6 86.6375 146.9 86.8375 148 86.5375C148.2 86.5375 148.3 86.4375 148.5 86.3375C148.4 88.1375 148.8 89.2375 149.2 90.0375C149.9 91.1375 151 91.8375 152.4 92.0375C152.7 92.0375 153 92.1375 153.2 92.1375C153.5 92.1375 153.8 92.1375 154.1 92.0375C156.8 97.2375 160.4 105.637 159.4 108.137C159.3 108.438 159.1 108.537 159 108.637C157.9 109.037 157 109.037 156.3 108.637C155.2 107.938 154.9 106.438 154.9 106.438C154.9 106.238 153.8 101.037 150.7 98.2375C150.3 97.8375 149.7 97.8375 149.3 98.2375C148.9 98.6375 148.9 99.2375 149.3 99.6375C151.5 101.737 152.6 105.637 152.8 106.537C152.7 106.938 152.3 107.938 151.6 108.137C151.1 108.337 149.8 108.237 147.4 106.037C147.2 104.537 146.1 99.0375 143.2 96.0375C142.8 95.6375 142.2 95.6375 141.8 96.0375C141.4 96.4375 141.4 97.0375 141.8 97.4375C143.4 99.1375 144.4 101.938 144.9 103.938L144.3 103.438C142.4 100.838 139.9 98.0375 136.8 95.4375C136.7 95.3375 136.6 95.3375 136.5 95.2375C136.5 95.2375 136.5 95.2375 136.4 95.2375C136.3 95.2375 136.2 95.2375 136.1 95.2375H136C135.9 95.2375 135.9 95.2375 135.8 95.3375C135.7 95.3375 135.7 95.3375 135.6 95.4375C134.5 96.0375 132 97.7375 131.4 98.9375C131.1 99.5375 131.3 100.238 131.6 100.838C131.6 100.838 131.6 100.838 131.6 100.938C131.7 101.137 131.8 101.238 131.9 101.438C131.3 101.438 130.8 101.338 130.3 101.338C129.7 100.438 129.4 99.5375 129.5 99.2375L129.6 99.0375C130.1 98.1375 130.8 96.8375 132.8 95.8375C133 95.7375 133.1 95.4375 133 95.1375C132.9 94.9375 132.6 94.8375 132.3 94.9375C130 96.1375 129.2 97.6375 128.7 98.5375L128.6 98.7375C128.3 99.3375 128.6 100.337 129 101.137C128.1 101.037 127.3 100.837 126.7 100.637C126.3 99.9375 125.9 98.9375 126.1 98.2375C126.5 97.1375 128.9 95.3375 129.8 94.7375C130 94.5375 130.1 94.2375 129.9 94.0375C129.7 93.8375 129.4 93.7375 129.2 93.9375C128.8 94.1375 125.7 96.3375 125.1 97.9375C124.8 98.6375 125 99.4375 125.2 100.137C124.9 99.9375 124.7 99.7375 124.5 99.6375C124.1 99.1375 124.2 98.5375 124.4 97.7375C124.4 97.5375 124.5 97.3375 124.5 97.1375C124.5 96.9375 124.7 96.6375 124.9 96.3375C125 96.2375 125 96.2375 125.1 96.1375C126 94.9375 127.8 93.4375 129.1 92.5375C129.1 92.5375 129.1 92.5375 129.2 92.5375L129.3 92.4375L129.4 92.3375V92.2375C129.4 92.2375 129.4 92.2375 129.4 92.1375V92.0375V91.9375C130 89.4375 127.1 85.7375 126.4 84.9375C117.7 74.2375 113.4 64.0375 114 54.6375C114.5 47.0375 118.4 42.1375 119.7 41.0375C119.7 41.0375 119.7 40.9375 119.8 40.9375C119.8 40.9375 122.8 37.7375 130.2 40.0375C130.7 40.2375 131.3 39.9375 131.5 39.3375C131.7 38.8375 131.4 38.2375 130.8 38.0375C126.2 36.6375 123 37.0375 121 37.8375C121.1 35.6375 120.1 33.2375 120 32.8375C120 32.8375 120 32.7375 119.9 32.7375C116.8 27.7375 118.5 23.3375 119.4 21.6375C119.5 21.7375 119.6 21.7375 119.7 21.8375L119.9 22.4375C119.5 23.1375 118.2 26.0375 119.2 29.1375C119.9 31.4375 121.8 33.2375 124.7 34.4375C126.8 35.1375 132.2 37.5375 132.9 39.2375C133 39.4375 133.2 39.5375 133.4 39.5375C133.6 39.5375 133.8 39.4375 133.9 39.2375C133.9 39.2375 135 36.9375 143.3 33.1375C146.1 31.8375 147.7 30.0375 148.3 27.9375C149 24.9375 147.4 22.0375 146.7 21.1375L147.9 19.4375C151.1 26.4375 148.3 33.0375 148.3 33.1375C148.1 33.5375 148.2 33.9375 148.5 34.2375C150.7 36.4375 151.5 39.3375 151.8 41.3375C146.8 37.5375 141.1 38.1375 140.9 38.1375C140.4 38.2375 140 38.7375 140 39.2375C140.1 39.7375 140.6 40.1375 141.1 40.1375C141.2 40.1375 146.4 39.5375 150.9 43.1375C154.5 46.0375 156.5 50.7375 157.1 57.2375C158.7 76.5375 160.3 87.3375 161.8 89.5375C162.3 90.8375 162.7 92.7375 162.3 93.2375Z" fill="black"/>
<rect y="45" width="165" height="22" fill="white"/>
<path d="M5.12294 62.144C3.8856 62.144 2.64827 61.76 1.41094 60.992V58.352H2.33894L3.02694 60.944C3.63494 61.328 4.3176 61.52 5.07494 61.52C5.64027 61.52 6.21627 61.392 6.80294 61.136C7.11227 60.9973 7.36827 60.7947 7.57094 60.528C7.7736 60.2613 7.8856 59.9467 7.90694 59.584C7.87494 58.7307 7.43227 58.0213 6.57894 57.456C6.25894 57.2533 5.82694 57.0293 5.28294 56.784C4.73894 56.528 4.38694 56.3627 4.22694 56.288C2.29627 55.4987 1.33094 54.4213 1.33094 53.056C1.33094 52.2027 1.6616 51.456 2.32294 50.816C2.98427 50.176 3.92827 49.856 5.15494 49.856C5.78427 49.856 6.43494 49.9573 7.10694 50.16C7.77894 50.352 8.33894 50.6613 8.78694 51.088V53.424H7.97094L7.23494 50.992C6.6376 50.672 5.9976 50.512 5.31494 50.512C4.63227 50.512 4.0616 50.6773 3.60294 51.008C3.14427 51.328 2.91494 51.776 2.91494 52.352C2.91494 53.024 3.1976 53.5627 3.76294 53.968C4.24294 54.32 4.7496 54.6187 5.28294 54.864C5.81627 55.0987 6.14694 55.248 6.27494 55.312C8.44027 56.2293 9.52294 57.4133 9.52294 58.864C9.52294 59.5893 9.2776 60.208 8.78694 60.72C7.89094 61.6693 6.6696 62.144 5.12294 62.144ZM11.3072 50H16.1712V50.592L14.5712 50.96V61.056L16.1712 61.408V62H11.3072V61.408L12.8912 61.04V50.976L11.3072 50.592V50ZM20.9292 62V61.408L22.4812 61.04V50.688H19.5532L18.9292 53.024H18.0972V50H28.5932V53.024H27.7612L27.1372 50.688H24.1612V61.056L25.7932 61.408V62H20.9292ZM28.6359 62V61.408L30.0599 61.056L34.9079 49.872H35.7239L40.3319 61.056L41.6759 61.408V62H37.1319V61.408L38.5239 61.072L37.2599 57.968H32.4279L31.2279 61.072L32.6679 61.408V62H28.6359ZM32.6519 57.36H37.0359L34.7959 51.744L32.6519 57.36ZM54.3966 62V61.408L55.9646 61.04V50.992L51.6126 62H50.6366L46.2846 50.992V61.04L47.8846 61.408V62H43.9166V61.408L45.4526 61.04V51.008L44.0926 50.592V50H47.5326L51.5806 60.016L55.5166 50H59.2926V50.592L57.6286 50.976V61.04L59.2606 61.408V62H54.3966ZM62.1666 50H66.9826C68.6786 50 69.8946 50.272 70.6306 50.816C71.3666 51.3493 71.7346 52.192 71.7346 53.344C71.7346 54.7413 71.2599 55.6853 70.3106 56.176C69.4679 56.6027 68.3159 56.816 66.8546 56.816H65.3986V61.04L67.0306 61.408V62H62.1666V61.408L63.7186 61.04V50.96L62.1666 50.592V50ZM65.3986 56.176H67.1906C68.0972 56.176 68.7692 55.952 69.2066 55.504C69.6546 55.056 69.8786 54.3573 69.8786 53.408C69.8786 52.4587 69.6546 51.76 69.2066 51.312C68.7692 50.864 68.0972 50.64 67.1906 50.64H65.3986V56.176ZM72.0578 62V61.408L73.4818 61.056L78.3298 49.872H79.1458L83.7538 61.056L85.0978 61.408V62H80.5538V61.408L81.9458 61.072L80.6818 57.968H75.8498L74.6498 61.072L76.0898 61.408V62H72.0578ZM76.0738 57.36H80.4578L78.2178 51.744L76.0738 57.36ZM95.8664 50H99.8024V50.592L98.2344 50.992V62H97.1144L89.6264 51.024V61.056L91.1944 61.408V62H87.3384V61.408L88.8264 61.056V51.008L87.3384 50.592V50H90.9064L97.4344 59.472V51.008L95.8664 50.592V50ZM102.682 50H107.498C109.194 50 110.41 50.272 111.146 50.816C111.882 51.3493 112.25 52.192 112.25 53.344C112.25 54.7413 111.776 55.6853 110.826 56.176C109.984 56.6027 108.832 56.816 107.37 56.816H105.914V61.04L107.546 61.408V62H102.682V61.408L104.234 61.04V50.96L102.682 50.592V50ZM105.914 56.176H107.706C108.613 56.176 109.285 55.952 109.722 55.504C110.17 55.056 110.394 54.3573 110.394 53.408C110.394 52.4587 110.17 51.76 109.722 51.312C109.285 50.864 108.613 50.64 107.706 50.64H105.914V56.176ZM112.573 62V61.408L113.997 61.056L118.845 49.872H119.661L124.269 61.056L125.613 61.408V62H121.069V61.408L122.461 61.072L121.197 57.968H116.365L115.165 61.072L116.605 61.408V62H112.573ZM116.589 57.36H120.973L118.733 51.744L116.589 57.36ZM139.166 62H135.934L131.982 56.656H131.086V61.04L132.718 61.408V62H127.854V61.408L129.406 61.04V50.96L127.854 50.592V50H132.67C134.366 50 135.582 50.256 136.318 50.768C137.054 51.28 137.422 52.1013 137.422 53.232C137.422 54.3627 137.091 55.2053 136.43 55.76C135.769 56.304 134.899 56.576 133.822 56.576L137.422 61.056L139.166 61.408V62ZM131.086 50.64V56.032H132.878C133.785 56.032 134.457 55.8187 134.894 55.392C135.342 54.9653 135.566 54.2827 135.566 53.344C135.566 52.3947 135.347 51.7067 134.91 51.28C134.473 50.8533 133.795 50.64 132.878 50.64H131.086ZM140.761 62V61.408L142.185 61.056L147.033 49.872H147.849L152.457 61.056L153.801 61.408V62H149.257V61.408L150.649 61.072L149.385 57.968H144.553L143.353 61.072L144.793 61.408V62H140.761ZM144.777 57.36H149.161L146.921 51.744L144.777 57.36ZM156.648 62V61.408L158.2 61.04V50.688H155.272L154.648 53.024H153.816V50H164.312V53.024H163.48L162.856 50.688H159.88V61.056L161.512 61.408V62H156.648Z" fill="black"/>
<path d="M1.41094 60.992H0.910938V61.2701L1.14726 61.4168L1.41094 60.992ZM1.41094 58.352V57.852H0.910938V58.352H1.41094ZM2.33894 58.352L2.8222 58.2237L2.72354 57.852H2.33894V58.352ZM3.02694 60.944L2.54367 61.0723L2.59402 61.262L2.75994 61.3667L3.02694 60.944ZM6.80294 61.136L7.00292 61.5943L7.00747 61.5923L6.80294 61.136ZM7.57094 60.528L7.17286 60.2255H7.17286L7.57094 60.528ZM7.90694 59.584L8.40608 59.6134L8.40749 59.5893L8.40659 59.5653L7.90694 59.584ZM6.57894 57.456L6.85514 57.0391L6.84646 57.0336L6.57894 57.456ZM5.28294 56.784L5.07001 57.2365L5.07738 57.2398L5.28294 56.784ZM4.22694 56.288L4.43838 55.8349L4.42739 55.8298L4.41615 55.8252L4.22694 56.288ZM2.32294 50.816L1.97523 50.4567L2.32294 50.816ZM7.10694 50.16L6.96255 50.6388L6.96958 50.6408L7.10694 50.16ZM8.78694 51.088H9.28694V50.8737L9.13177 50.7259L8.78694 51.088ZM8.78694 53.424V53.924H9.28694V53.424H8.78694ZM7.97094 53.424L7.49237 53.5688L7.59986 53.924H7.97094V53.424ZM7.23494 50.992L7.7135 50.8472L7.65354 50.649L7.47105 50.5513L7.23494 50.992ZM3.60294 51.008L3.88906 51.4181L3.89534 51.4136L3.60294 51.008ZM3.76294 53.968L4.05864 53.5648L4.05428 53.5617L3.76294 53.968ZM5.28294 54.864L5.07396 55.3183L5.08157 55.3217L5.28294 54.864ZM6.27494 55.312L6.05133 55.7592L6.06541 55.7663L6.0799 55.7724L6.27494 55.312ZM8.78694 60.72L8.42593 60.374L8.42332 60.3768L8.78694 60.72ZM5.12294 61.644C3.9942 61.644 2.84698 61.2949 1.67462 60.5672L1.14726 61.4168C2.44956 62.2251 3.77701 62.644 5.12294 62.644V61.644ZM1.91094 60.992V58.352H0.910938V60.992H1.91094ZM1.41094 58.852H2.33894V57.852H1.41094V58.852ZM1.85567 58.4803L2.54367 61.0723L3.5102 60.8157L2.8222 58.2237L1.85567 58.4803ZM2.75994 61.3667C3.45219 61.804 4.22836 62.02 5.07494 62.02V61.02C4.40685 61.02 3.81769 60.852 3.29393 60.5213L2.75994 61.3667ZM5.07494 62.02C5.71763 62.02 6.3615 61.8742 7.00291 61.5943L6.60297 60.6777C6.07105 60.9098 5.56291 61.02 5.07494 61.02V62.02ZM7.00747 61.5923C7.3922 61.4198 7.71508 61.1647 7.96902 60.8305L7.17286 60.2255C7.02146 60.4247 6.83234 60.5749 6.59841 60.6797L7.00747 61.5923ZM7.96902 60.8305C8.23684 60.4781 8.37943 60.0663 8.40608 59.6134L7.4078 59.5546C7.39178 59.827 7.31037 60.0445 7.17286 60.2255L7.96902 60.8305ZM8.40659 59.5653C8.36731 58.5179 7.81244 57.6734 6.85508 57.0392L6.30279 57.8728C7.0521 58.3692 7.38257 58.9435 7.40729 59.6027L8.40659 59.5653ZM6.84646 57.0336C6.49871 56.8133 6.04323 56.5784 5.48849 56.3282L5.07738 57.2398C5.61065 57.4803 6.01917 57.6933 6.31141 57.8784L6.84646 57.0336ZM5.49584 56.3316C4.95203 56.0757 4.59925 55.91 4.43838 55.8349L4.01549 56.7411C4.17462 56.8154 4.52585 56.9803 5.07004 57.2364L5.49584 56.3316ZM4.41615 55.8252C2.55954 55.0661 1.83094 54.1184 1.83094 53.056H0.830938C0.830938 54.7243 2.033 55.9312 4.03772 56.7508L4.41615 55.8252ZM1.83094 53.056C1.83094 52.3495 2.09817 51.7293 2.67065 51.1753L1.97523 50.4567C1.22504 51.1827 0.830938 52.0558 0.830938 53.056H1.83094ZM2.67065 51.1753C3.21106 50.6523 4.01363 50.356 5.15494 50.356V49.356C3.84291 49.356 2.75748 49.6997 1.97523 50.4567L2.67065 51.1753ZM5.15494 50.356C5.73009 50.356 6.33206 50.4486 6.96257 50.6387L7.25131 49.6813C6.53781 49.4661 5.83845 49.356 5.15494 49.356V50.356ZM6.96958 50.6408C7.57404 50.8135 8.05988 51.086 8.44211 51.4501L9.13177 50.7259C8.618 50.2366 7.98384 49.8905 7.2443 49.6792L6.96958 50.6408ZM8.28694 51.088V53.424H9.28694V51.088H8.28694ZM8.78694 52.924H7.97094V53.924H8.78694V52.924ZM8.4495 53.2792L7.7135 50.8472L6.75637 51.1368L7.49237 53.5688L8.4495 53.2792ZM7.47105 50.5513C6.80054 50.1921 6.07935 50.012 5.31494 50.012V51.012C5.91586 51.012 6.47467 51.1519 6.99883 51.4327L7.47105 50.5513ZM5.31494 50.012C4.54954 50.012 3.87076 50.1985 3.31054 50.6024L3.89534 51.4136C4.25245 51.1561 4.715 51.012 5.31494 51.012V50.012ZM3.31685 50.5979C2.71944 51.0147 2.41494 51.6184 2.41494 52.352H3.41494C3.41494 51.9336 3.5691 51.6413 3.88903 51.4181L3.31685 50.5979ZM2.41494 52.352C2.41494 53.1918 2.78073 53.879 3.47159 54.3743L4.05428 53.5617C3.61447 53.2463 3.41494 52.8562 3.41494 52.352H2.41494ZM3.46726 54.3712C3.974 54.7428 4.50967 55.0587 5.07398 55.3182L5.49189 54.4098C4.98953 54.1787 4.51188 53.8972 4.05862 53.5648L3.46726 54.3712ZM5.08157 55.3217C5.61924 55.5582 5.93685 55.702 6.05133 55.7592L6.49854 54.8648C6.35703 54.794 6.0133 54.6391 5.48431 54.4063L5.08157 55.3217ZM6.0799 55.7724C8.18798 56.6655 9.02294 57.7235 9.02294 58.864H10.0229C10.0229 57.1032 8.69257 55.7932 6.46998 54.8516L6.0799 55.7724ZM9.02294 58.864C9.02294 59.4637 8.82516 59.9575 8.42594 60.374L9.14793 61.066C9.73004 60.4585 10.0229 59.715 10.0229 58.864H9.02294ZM8.42332 60.3768C7.63918 61.2076 6.55957 61.644 5.12294 61.644V62.644C6.77964 62.644 8.1427 62.131 9.15056 61.0632L8.42332 60.3768ZM11.3072 50V49.5H10.8072V50H11.3072ZM16.1712 50H16.6712V49.5H16.1712V50ZM16.1712 50.592L16.2833 51.0793L16.6712 50.9901V50.592H16.1712ZM14.5712 50.96L14.4591 50.4727L14.0712 50.5619V50.96H14.5712ZM14.5712 61.056H14.0712V61.458L14.4638 61.5443L14.5712 61.056ZM16.1712 61.408H16.6712V61.006L16.2786 60.9197L16.1712 61.408ZM16.1712 62V62.5H16.6712V62H16.1712ZM11.3072 62H10.8072V62.5H11.3072V62ZM11.3072 61.408L11.194 60.921L10.8072 61.0108V61.408H11.3072ZM12.8912 61.04L13.0043 61.527L13.3912 61.4372V61.04H12.8912ZM12.8912 50.976H13.3912V50.5827L13.009 50.4901L12.8912 50.976ZM11.3072 50.592H10.8072V50.9853L11.1894 51.0779L11.3072 50.592ZM11.3072 50.5H16.1712V49.5H11.3072V50.5ZM15.6712 50V50.592H16.6712V50H15.6712ZM16.0591 50.1047L14.4591 50.4727L14.6833 51.4473L16.2833 51.0793L16.0591 50.1047ZM14.0712 50.96V61.056H15.0712V50.96H14.0712ZM14.4638 61.5443L16.0638 61.8963L16.2786 60.9197L14.6786 60.5677L14.4638 61.5443ZM15.6712 61.408V62H16.6712V61.408H15.6712ZM16.1712 61.5H11.3072V62.5H16.1712V61.5ZM11.8072 62V61.408H10.8072V62H11.8072ZM11.4203 61.895L13.0043 61.527L12.778 60.553L11.194 60.921L11.4203 61.895ZM13.3912 61.04V50.976H12.3912V61.04H13.3912ZM13.009 50.4901L11.425 50.1061L11.1894 51.0779L12.7734 51.4619L13.009 50.4901ZM11.8072 50.592V50H10.8072V50.592H11.8072ZM20.9292 62H20.4292V62.5H20.9292V62ZM20.9292 61.408L20.8138 60.9215L20.4292 61.0127V61.408H20.9292ZM22.4812 61.04L22.5965 61.5265L22.9812 61.4353V61.04H22.4812ZM22.4812 50.688H22.9812V50.188H22.4812V50.688ZM19.5532 50.688V50.188H19.1692L19.0701 50.559L19.5532 50.688ZM18.9292 53.024V53.524H19.3132L19.4123 53.153L18.9292 53.024ZM18.0972 53.024H17.5972V53.524H18.0972V53.024ZM18.0972 50V49.5H17.5972V50H18.0972ZM28.5932 50H29.0932V49.5H28.5932V50ZM28.5932 53.024V53.524H29.0932V53.024H28.5932ZM27.7612 53.024L27.2781 53.153L27.3772 53.524H27.7612V53.024ZM27.1372 50.688L27.6203 50.559L27.5212 50.188H27.1372V50.688ZM24.1612 50.688V50.188H23.6612V50.688H24.1612ZM24.1612 61.056H23.6612V61.4597L24.0558 61.5448L24.1612 61.056ZM25.7932 61.408H26.2932V61.0043L25.8986 60.9192L25.7932 61.408ZM25.7932 62V62.5H26.2932V62H25.7932ZM21.4292 62V61.408H20.4292V62H21.4292ZM21.0445 61.8945L22.5965 61.5265L22.3658 60.5535L20.8138 60.9215L21.0445 61.8945ZM22.9812 61.04V50.688H21.9812V61.04H22.9812ZM22.4812 50.188H19.5532V51.188H22.4812V50.188ZM19.0701 50.559L18.4461 52.895L19.4123 53.153L20.0362 50.817L19.0701 50.559ZM18.9292 52.524H18.0972V53.524H18.9292V52.524ZM18.5972 53.024V50H17.5972V53.024H18.5972ZM18.0972 50.5H28.5932V49.5H18.0972V50.5ZM28.0932 50V53.024H29.0932V50H28.0932ZM28.5932 52.524H27.7612V53.524H28.5932V52.524ZM28.2442 52.895L27.6203 50.559L26.6541 50.817L27.2781 53.153L28.2442 52.895ZM27.1372 50.188H24.1612V51.188H27.1372V50.188ZM23.6612 50.688V61.056H24.6612V50.688H23.6612ZM24.0558 61.5448L25.6878 61.8968L25.8986 60.9192L24.2666 60.5672L24.0558 61.5448ZM25.2932 61.408V62H26.2932V61.408H25.2932ZM25.7932 61.5H20.9292V62.5H25.7932V61.5ZM28.6359 62H28.1359V62.5H28.6359V62ZM28.6359 61.408L28.516 60.9226L28.1359 61.0165V61.408H28.6359ZM30.0599 61.056L30.1799 61.5414L30.4202 61.482L30.5187 61.2549L30.0599 61.056ZM34.9079 49.872V49.372H34.5797L34.4492 49.6731L34.9079 49.872ZM35.7239 49.872L36.1862 49.6815L36.0587 49.372H35.7239V49.872ZM40.3319 61.056L39.8696 61.2465L39.9645 61.4766L40.2053 61.5397L40.3319 61.056ZM41.6759 61.408H42.1759V61.0221L41.8026 60.9243L41.6759 61.408ZM41.6759 62V62.5H42.1759V62H41.6759ZM37.1319 62H36.6319V62.5H37.1319V62ZM37.1319 61.408L37.0146 60.922L36.6319 61.0143V61.408H37.1319ZM38.5239 61.072L38.6413 61.558L39.2062 61.4217L38.987 60.8834L38.5239 61.072ZM37.2599 57.968L37.723 57.7794L37.5962 57.468H37.2599V57.968ZM32.4279 57.968V57.468H32.0852L31.9616 57.7877L32.4279 57.968ZM31.2279 61.072L30.7616 60.8917L30.5542 61.4282L31.1143 61.5589L31.2279 61.072ZM32.6679 61.408H33.1679V61.0112L32.7816 60.9211L32.6679 61.408ZM32.6679 62V62.5H33.1679V62H32.6679ZM32.6519 57.36L32.1848 57.1817L31.9259 57.86H32.6519V57.36ZM37.0359 57.36V57.86H37.7737L37.5004 57.1748L37.0359 57.36ZM34.7959 51.744L35.2604 51.5588L34.7857 50.3688L34.3288 51.5657L34.7959 51.744ZM29.1359 62V61.408H28.1359V62H29.1359ZM28.7559 61.8934L30.1799 61.5414L29.94 60.5706L28.516 60.9226L28.7559 61.8934ZM30.5187 61.2549L35.3667 50.0709L34.4492 49.6731L29.6012 60.8571L30.5187 61.2549ZM34.9079 50.372H35.7239V49.372H34.9079V50.372ZM35.2616 50.0625L39.8696 61.2465L40.7942 60.8655L36.1862 49.6815L35.2616 50.0625ZM40.2053 61.5397L41.5493 61.8917L41.8026 60.9243L40.4586 60.5723L40.2053 61.5397ZM41.1759 61.408V62H42.1759V61.408H41.1759ZM41.6759 61.5H37.1319V62.5H41.6759V61.5ZM37.6319 62V61.408H36.6319V62H37.6319ZM37.2493 61.894L38.6413 61.558L38.4066 60.586L37.0146 60.922L37.2493 61.894ZM38.987 60.8834L37.723 57.7794L36.7969 58.1566L38.0609 61.2606L38.987 60.8834ZM37.2599 57.468H32.4279V58.468H37.2599V57.468ZM31.9616 57.7877L30.7616 60.8917L31.6943 61.2523L32.8943 58.1483L31.9616 57.7877ZM31.1143 61.5589L32.5543 61.8949L32.7816 60.9211L31.3416 60.5851L31.1143 61.5589ZM32.1679 61.408V62H33.1679V61.408H32.1679ZM32.6679 61.5H28.6359V62.5H32.6679V61.5ZM32.6519 57.86H37.0359V56.86H32.6519V57.86ZM37.5004 57.1748L35.2604 51.5588L34.3315 51.9292L36.5715 57.5452L37.5004 57.1748ZM34.3288 51.5657L32.1848 57.1817L33.1191 57.5383L35.2631 51.9223L34.3288 51.5657ZM54.3966 62H53.8966V62.5H54.3966V62ZM54.3966 61.408L54.2823 60.9212L53.8966 61.0118V61.408H54.3966ZM55.9646 61.04L56.0788 61.5268L56.4646 61.4362V61.04H55.9646ZM55.9646 50.992H56.4646L55.4996 50.8082L55.9646 50.992ZM51.6126 62V62.5H51.9525L52.0775 62.1838L51.6126 62ZM50.6366 62L50.1716 62.1838L50.2966 62.5H50.6366V62ZM46.2846 50.992L46.7495 50.8082L45.7846 50.992H46.2846ZM46.2846 61.04H45.7846V61.4381L46.1725 61.5273L46.2846 61.04ZM47.8846 61.408H48.3846V61.0099L47.9966 60.9207L47.8846 61.408ZM47.8846 62V62.5H48.3846V62H47.8846ZM43.9166 62H43.4166V62.5H43.9166V62ZM43.9166 61.408L43.8001 60.9218L43.4166 61.0136V61.408H43.9166ZM45.4526 61.04L45.5691 61.5262L45.9526 61.4344V61.04H45.4526ZM45.4526 51.008H45.9526V50.6381L45.5988 50.5299L45.4526 51.008ZM44.0926 50.592H43.5926V50.9619L43.9463 51.0701L44.0926 50.592ZM44.0926 50V49.5H43.5926V50H44.0926ZM47.5326 50L47.9961 49.8126L47.8698 49.5H47.5326V50ZM51.5806 60.016L51.117 60.2034L51.5871 61.3665L52.0459 60.1989L51.5806 60.016ZM55.5166 50V49.5H55.1758L55.0512 49.8171L55.5166 50ZM59.2926 50H59.7926V49.5H59.2926V50ZM59.2926 50.592L59.405 51.0792L59.7926 50.9898V50.592H59.2926ZM57.6286 50.976L57.5161 50.4888L57.1286 50.5782V50.976H57.6286ZM57.6286 61.04H57.1286V61.4398L57.5186 61.5278L57.6286 61.04ZM59.2606 61.408H59.7606V61.0082L59.3705 60.9202L59.2606 61.408ZM59.2606 62V62.5H59.7606V62H59.2606ZM54.8966 62V61.408H53.8966V62H54.8966ZM54.5108 61.8948L56.0788 61.5268L55.8503 60.5532L54.2823 60.9212L54.5108 61.8948ZM56.4646 61.04V50.992H55.4646V61.04H56.4646ZM55.4996 50.8082L51.1476 61.8162L52.0775 62.1838L56.4295 51.1758L55.4996 50.8082ZM51.6126 61.5H50.6366V62.5H51.6126V61.5ZM51.1015 61.8162L46.7495 50.8082L45.8196 51.1758L50.1716 62.1838L51.1015 61.8162ZM45.7846 50.992V61.04H46.7846V50.992H45.7846ZM46.1725 61.5273L47.7725 61.8953L47.9966 60.9207L46.3966 60.5527L46.1725 61.5273ZM47.3846 61.408V62H48.3846V61.408H47.3846ZM47.8846 61.5H43.9166V62.5H47.8846V61.5ZM44.4166 62V61.408H43.4166V62H44.4166ZM44.0331 61.8942L45.5691 61.5262L45.3361 60.5538L43.8001 60.9218L44.0331 61.8942ZM45.9526 61.04V51.008H44.9526V61.04H45.9526ZM45.5988 50.5299L44.2388 50.1139L43.9463 51.0701L45.3063 51.4861L45.5988 50.5299ZM44.5926 50.592V50H43.5926V50.592H44.5926ZM44.0926 50.5H47.5326V49.5H44.0926V50.5ZM47.069 50.1874L51.117 60.2034L52.0441 59.8286L47.9961 49.8126L47.069 50.1874ZM52.0459 60.1989L55.9819 50.1829L55.0512 49.8171L51.1152 59.8331L52.0459 60.1989ZM55.5166 50.5H59.2926V49.5H55.5166V50.5ZM58.7926 50V50.592H59.7926V50H58.7926ZM59.1801 50.1048L57.5161 50.4888L57.741 51.4632L59.405 51.0792L59.1801 50.1048ZM57.1286 50.976V61.04H58.1286V50.976H57.1286ZM57.5186 61.5278L59.1506 61.8958L59.3705 60.9202L57.7385 60.5522L57.5186 61.5278ZM58.7606 61.408V62H59.7606V61.408H58.7606ZM59.2606 61.5H54.3966V62.5H59.2606V61.5ZM62.1666 50V49.5H61.6666V50H62.1666ZM70.6306 50.816L70.3334 51.2181L70.3372 51.2209L70.6306 50.816ZM70.3106 56.176L70.5364 56.6221L70.5401 56.6202L70.3106 56.176ZM65.3986 56.816V56.316H64.8986V56.816H65.3986ZM65.3986 61.04H64.8986V61.4398L65.2886 61.5278L65.3986 61.04ZM67.0306 61.408H67.5306V61.0082L67.1405 60.9202L67.0306 61.408ZM67.0306 62V62.5H67.5306V62H67.0306ZM62.1666 62H61.6666V62.5H62.1666V62ZM62.1666 61.408L62.0512 60.9215L61.6666 61.0127V61.408H62.1666ZM63.7186 61.04L63.8339 61.5265L64.2186 61.4353V61.04H63.7186ZM63.7186 50.96H64.2186V50.5647L63.8339 50.4735L63.7186 50.96ZM62.1666 50.592H61.6666V50.9873L62.0512 51.0785L62.1666 50.592ZM65.3986 56.176H64.8986V56.676H65.3986V56.176ZM69.2066 55.504L68.853 55.1504L68.8488 55.1547L69.2066 55.504ZM69.2066 51.312L68.8487 51.6613L68.853 51.6656L69.2066 51.312ZM65.3986 50.64V50.14H64.8986V50.64H65.3986ZM62.1666 50.5H66.9826V49.5H62.1666V50.5ZM66.9826 50.5C68.6507 50.5 69.7305 50.7725 70.3334 51.2181L70.9278 50.4139C70.0586 49.7715 68.7065 49.5 66.9826 49.5V50.5ZM70.3372 51.2209C70.9091 51.6353 71.2346 52.3047 71.2346 53.344H72.2346C72.2346 52.0793 71.824 51.0633 70.924 50.4111L70.3372 51.2209ZM71.2346 53.344C71.2346 54.6217 70.8119 55.3541 70.081 55.7318L70.5401 56.6202C71.7079 56.0166 72.2346 54.861 72.2346 53.344H71.2346ZM70.0847 55.7299C69.34 56.107 68.2763 56.316 66.8546 56.316V57.316C68.3555 57.316 69.5958 57.0983 70.5364 56.6221L70.0847 55.7299ZM66.8546 56.316H65.3986V57.316H66.8546V56.316ZM64.8986 56.816V61.04H65.8986V56.816H64.8986ZM65.2886 61.5278L66.9206 61.8958L67.1405 60.9202L65.5085 60.5522L65.2886 61.5278ZM66.5306 61.408V62H67.5306V61.408H66.5306ZM67.0306 61.5H62.1666V62.5H67.0306V61.5ZM62.6666 62V61.408H61.6666V62H62.6666ZM62.2819 61.8945L63.8339 61.5265L63.6032 60.5535L62.0512 60.9215L62.2819 61.8945ZM64.2186 61.04V50.96H63.2186V61.04H64.2186ZM63.8339 50.4735L62.2819 50.1055L62.0512 51.0785L63.6032 51.4465L63.8339 50.4735ZM62.6666 50.592V50H61.6666V50.592H62.6666ZM65.3986 56.676H67.1906V55.676H65.3986V56.676ZM67.1906 56.676C68.1712 56.676 68.9976 56.4338 69.5643 55.8533L68.8488 55.1547C68.5408 55.4702 68.0232 55.676 67.1906 55.676V56.676ZM69.5601 55.8576C70.1397 55.278 70.3786 54.4246 70.3786 53.408H69.3786C69.3786 54.2901 69.1694 54.834 68.853 55.1504L69.5601 55.8576ZM70.3786 53.408C70.3786 52.3914 70.1397 51.538 69.5601 50.9584L68.853 51.6656C69.1694 51.982 69.3786 52.5259 69.3786 53.408H70.3786ZM69.5643 50.9627C68.9976 50.3822 68.1712 50.14 67.1906 50.14V51.14C68.0232 51.14 68.5408 51.3458 68.8488 51.6613L69.5643 50.9627ZM67.1906 50.14H65.3986V51.14H67.1906V50.14ZM64.8986 50.64V56.176H65.8986V50.64H64.8986ZM72.0578 62H71.5578V62.5H72.0578V62ZM72.0578 61.408L71.9378 60.9226L71.5578 61.0165V61.408H72.0578ZM73.4818 61.056L73.6018 61.5414L73.8421 61.482L73.9406 61.2549L73.4818 61.056ZM78.3298 49.872V49.372H78.0016L77.8711 49.6731L78.3298 49.872ZM79.1458 49.872L79.6081 49.6815L79.4806 49.372H79.1458V49.872ZM83.7538 61.056L83.2915 61.2465L83.3863 61.4766L83.6271 61.5397L83.7538 61.056ZM85.0978 61.408H85.5978V61.0221L85.2245 60.9243L85.0978 61.408ZM85.0978 62V62.5H85.5978V62H85.0978ZM80.5538 62H80.0538V62.5H80.5538V62ZM80.5538 61.408L80.4365 60.922L80.0538 61.0143V61.408H80.5538ZM81.9458 61.072L82.0631 61.558L82.6281 61.4217L82.4089 60.8834L81.9458 61.072ZM80.6818 57.968L81.1449 57.7794L81.0181 57.468H80.6818V57.968ZM75.8498 57.968V57.468H75.507L75.3835 57.7877L75.8498 57.968ZM74.6498 61.072L74.1834 60.8917L73.976 61.4282L74.5362 61.5589L74.6498 61.072ZM76.0898 61.408H76.5898V61.0112L76.2034 60.9211L76.0898 61.408ZM76.0898 62V62.5H76.5898V62H76.0898ZM76.0738 57.36L75.6067 57.1817L75.3477 57.86H76.0738V57.36ZM80.4578 57.36V57.86H81.1955L80.9222 57.1748L80.4578 57.36ZM78.2178 51.744L78.6822 51.5588L78.2076 50.3688L77.7507 51.5657L78.2178 51.744ZM72.5578 62V61.408H71.5578V62H72.5578ZM72.1778 61.8934L73.6018 61.5414L73.3618 60.5706L71.9378 60.9226L72.1778 61.8934ZM73.9406 61.2549L78.7886 50.0709L77.8711 49.6731L73.0231 60.8571L73.9406 61.2549ZM78.3298 50.372H79.1458V49.372H78.3298V50.372ZM78.6835 50.0625L83.2915 61.2465L84.2161 60.8655L79.6081 49.6815L78.6835 50.0625ZM83.6271 61.5397L84.9711 61.8917L85.2245 60.9243L83.8805 60.5723L83.6271 61.5397ZM84.5978 61.408V62H85.5978V61.408H84.5978ZM85.0978 61.5H80.5538V62.5H85.0978V61.5ZM81.0538 62V61.408H80.0538V62H81.0538ZM80.6711 61.894L82.0631 61.558L81.8285 60.586L80.4365 60.922L80.6711 61.894ZM82.4089 60.8834L81.1449 57.7794L80.2187 58.1566L81.4827 61.2606L82.4089 60.8834ZM80.6818 57.468H75.8498V58.468H80.6818V57.468ZM75.3835 57.7877L74.1834 60.8917L75.1162 61.2523L76.3162 58.1483L75.3835 57.7877ZM74.5362 61.5589L75.9762 61.8949L76.2034 60.9211L74.7634 60.5851L74.5362 61.5589ZM75.5898 61.408V62H76.5898V61.408H75.5898ZM76.0898 61.5H72.0578V62.5H76.0898V61.5ZM76.0738 57.86H80.4578V56.86H76.0738V57.86ZM80.9222 57.1748L78.6822 51.5588L77.7534 51.9292L79.9934 57.5452L80.9222 57.1748ZM77.7507 51.5657L75.6067 57.1817L76.5409 57.5383L78.6849 51.9223L77.7507 51.5657ZM95.8664 50V49.5H95.3664V50H95.8664ZM99.8024 50H100.302V49.5H99.8024V50ZM99.8024 50.592L99.926 51.0765L100.302 50.9805V50.592H99.8024ZM98.2344 50.992L98.1108 50.5075L97.7344 50.6035V50.992H98.2344ZM98.2344 62V62.5H98.7344V62H98.2344ZM97.1144 62L96.7014 62.2818L96.8503 62.5H97.1144V62ZM89.6264 51.024L90.0395 50.7422L89.1264 49.4039V51.024H89.6264ZM89.6264 61.056H89.1264V61.4562L89.5169 61.5439L89.6264 61.056ZM91.1944 61.408H91.6944V61.0078L91.304 60.9201L91.1944 61.408ZM91.1944 62V62.5H91.6944V62H91.1944ZM87.3384 62H86.8384V62.5H87.3384V62ZM87.3384 61.408L87.2233 60.9214L86.8384 61.0125V61.408H87.3384ZM88.8264 61.056L88.9415 61.5426L89.3264 61.4515V61.056H88.8264ZM88.8264 51.008H89.3264V50.6286L88.9611 50.5265L88.8264 51.008ZM87.3384 50.592H86.8384V50.9714L87.2038 51.0735L87.3384 50.592ZM87.3384 50V49.5H86.8384V50H87.3384ZM90.9064 50L91.3181 49.7163L91.1691 49.5H90.9064V50ZM97.4344 59.472L97.0227 59.7557L97.9344 61.0786V59.472H97.4344ZM97.4344 51.008H97.9344V50.6234L97.5627 50.5247L97.4344 51.008ZM95.8664 50.592H95.3664V50.9766L95.7382 51.0753L95.8664 50.592ZM95.8664 50.5H99.8024V49.5H95.8664V50.5ZM99.3024 50V50.592H100.302V50H99.3024ZM99.6788 50.1075L98.1108 50.5075L98.358 51.4765L99.926 51.0765L99.6788 50.1075ZM97.7344 50.992V62H98.7344V50.992H97.7344ZM98.2344 61.5H97.1144V62.5H98.2344V61.5ZM97.5275 61.7182L90.0395 50.7422L89.2134 51.3058L96.7014 62.2818L97.5275 61.7182ZM89.1264 51.024V61.056H90.1264V51.024H89.1264ZM89.5169 61.5439L91.0849 61.8959L91.304 60.9201L89.736 60.5681L89.5169 61.5439ZM90.6944 61.408V62H91.6944V61.408H90.6944ZM91.1944 61.5H87.3384V62.5H91.1944V61.5ZM87.8384 62V61.408H86.8384V62H87.8384ZM87.4535 61.8946L88.9415 61.5426L88.7113 60.5694L87.2233 60.9214L87.4535 61.8946ZM89.3264 61.056V51.008H88.3264V61.056H89.3264ZM88.9611 50.5265L87.4731 50.1105L87.2038 51.0735L88.6918 51.4895L88.9611 50.5265ZM87.8384 50.592V50H86.8384V50.592H87.8384ZM87.3384 50.5H90.9064V49.5H87.3384V50.5ZM90.4947 50.2837L97.0227 59.7557L97.8461 59.1883L91.3181 49.7163L90.4947 50.2837ZM97.9344 59.472V51.008H96.9344V59.472H97.9344ZM97.5627 50.5247L95.9947 50.1087L95.7382 51.0753L97.3062 51.4913L97.5627 50.5247ZM96.3664 50.592V50H95.3664V50.592H96.3664ZM102.682 50V49.5H102.182V50H102.682ZM111.146 50.816L110.849 51.2181L110.853 51.2209L111.146 50.816ZM110.826 56.176L111.052 56.6221L111.056 56.6202L110.826 56.176ZM105.914 56.816V56.316H105.414V56.816H105.914ZM105.914 61.04H105.414V61.4398L105.804 61.5278L105.914 61.04ZM107.546 61.408H108.046V61.0082L107.656 60.9202L107.546 61.408ZM107.546 62V62.5H108.046V62H107.546ZM102.682 62H102.182V62.5H102.682V62ZM102.682 61.408L102.567 60.9215L102.182 61.0127V61.408H102.682ZM104.234 61.04L104.35 61.5265L104.734 61.4353V61.04H104.234ZM104.234 50.96H104.734V50.5647L104.35 50.4735L104.234 50.96ZM102.682 50.592H102.182V50.9873L102.567 51.0785L102.682 50.592ZM105.914 56.176H105.414V56.676H105.914V56.176ZM109.722 55.504L109.369 55.1504L109.364 55.1547L109.722 55.504ZM109.722 51.312L109.364 51.6613L109.369 51.6656L109.722 51.312ZM105.914 50.64V50.14H105.414V50.64H105.914ZM102.682 50.5H107.498V49.5H102.682V50.5ZM107.498 50.5C109.166 50.5 110.246 50.7725 110.849 51.2181L111.443 50.4139C110.574 49.7715 109.222 49.5 107.498 49.5V50.5ZM110.853 51.2209C111.425 51.6353 111.75 52.3047 111.75 53.344H112.75C112.75 52.0793 112.34 51.0633 111.44 50.4111L110.853 51.2209ZM111.75 53.344C111.75 54.6217 111.327 55.3541 110.597 55.7318L111.056 56.6202C112.224 56.0166 112.75 54.861 112.75 53.344H111.75ZM110.6 55.7299C109.856 56.107 108.792 56.316 107.37 56.316V57.316C108.871 57.316 110.111 57.0983 111.052 56.6221L110.6 55.7299ZM107.37 56.316H105.914V57.316H107.37V56.316ZM105.414 56.816V61.04H106.414V56.816H105.414ZM105.804 61.5278L107.436 61.8958L107.656 60.9202L106.024 60.5522L105.804 61.5278ZM107.046 61.408V62H108.046V61.408H107.046ZM107.546 61.5H102.682V62.5H107.546V61.5ZM103.182 62V61.408H102.182V62H103.182ZM102.798 61.8945L104.35 61.5265L104.119 60.5535L102.567 60.9215L102.798 61.8945ZM104.734 61.04V50.96H103.734V61.04H104.734ZM104.35 50.4735L102.798 50.1055L102.567 51.0785L104.119 51.4465L104.35 50.4735ZM103.182 50.592V50H102.182V50.592H103.182ZM105.914 56.676H107.706V55.676H105.914V56.676ZM107.706 56.676C108.687 56.676 109.513 56.4338 110.08 55.8533L109.364 55.1547C109.056 55.4702 108.539 55.676 107.706 55.676V56.676ZM110.076 55.8576C110.655 55.278 110.894 54.4246 110.894 53.408H109.894C109.894 54.2901 109.685 54.834 109.369 55.1504L110.076 55.8576ZM110.894 53.408C110.894 52.3914 110.655 51.538 110.076 50.9584L109.369 51.6656C109.685 51.982 109.894 52.5259 109.894 53.408H110.894ZM110.08 50.9627C109.513 50.3822 108.687 50.14 107.706 50.14V51.14C108.539 51.14 109.056 51.3458 109.364 51.6613L110.08 50.9627ZM107.706 50.14H105.914V51.14H107.706V50.14ZM105.414 50.64V56.176H106.414V50.64H105.414ZM112.573 62H112.073V62.5H112.573V62ZM112.573 61.408L112.453 60.9226L112.073 61.0165V61.408H112.573ZM113.997 61.056L114.117 61.5414L114.358 61.482L114.456 61.2549L113.997 61.056ZM118.845 49.872V49.372H118.517L118.387 49.6731L118.845 49.872ZM119.661 49.872L120.124 49.6815L119.996 49.372H119.661V49.872ZM124.269 61.056L123.807 61.2465L123.902 61.4766L124.143 61.5397L124.269 61.056ZM125.613 61.408H126.113V61.0221L125.74 60.9243L125.613 61.408ZM125.613 62V62.5H126.113V62H125.613ZM121.069 62H120.569V62.5H121.069V62ZM121.069 61.408L120.952 60.922L120.569 61.0143V61.408H121.069ZM122.461 61.072L122.579 61.558L123.144 61.4217L122.925 60.8834L122.461 61.072ZM121.197 57.968L121.661 57.7794L121.534 57.468H121.197V57.968ZM116.365 57.968V57.468H116.023L115.899 57.7877L116.365 57.968ZM115.165 61.072L114.699 60.8917L114.492 61.4282L115.052 61.5589L115.165 61.072ZM116.605 61.408H117.105V61.0112L116.719 60.9211L116.605 61.408ZM116.605 62V62.5H117.105V62H116.605ZM116.589 57.36L116.122 57.1817L115.863 57.86H116.589V57.36ZM120.973 57.36V57.86H121.711L121.438 57.1748L120.973 57.36ZM118.733 51.744L119.198 51.5588L118.723 50.3688L118.266 51.5657L118.733 51.744ZM113.073 62V61.408H112.073V62H113.073ZM112.693 61.8934L114.117 61.5414L113.877 60.5706L112.453 60.9226L112.693 61.8934ZM114.456 61.2549L119.304 50.0709L118.387 49.6731L113.539 60.8571L114.456 61.2549ZM118.845 50.372H119.661V49.372H118.845V50.372ZM119.199 50.0625L123.807 61.2465L124.732 60.8655L120.124 49.6815L119.199 50.0625ZM124.143 61.5397L125.487 61.8917L125.74 60.9243L124.396 60.5723L124.143 61.5397ZM125.113 61.408V62H126.113V61.408H125.113ZM125.613 61.5H121.069V62.5H125.613V61.5ZM121.569 62V61.408H120.569V62H121.569ZM121.187 61.894L122.579 61.558L122.344 60.586L120.952 60.922L121.187 61.894ZM122.925 60.8834L121.661 57.7794L120.734 58.1566L121.998 61.2606L122.925 60.8834ZM121.197 57.468H116.365V58.468H121.197V57.468ZM115.899 57.7877L114.699 60.8917L115.632 61.2523L116.832 58.1483L115.899 57.7877ZM115.052 61.5589L116.492 61.8949L116.719 60.9211L115.279 60.5851L115.052 61.5589ZM116.105 61.408V62H117.105V61.408H116.105ZM116.605 61.5H112.573V62.5H116.605V61.5ZM116.589 57.86H120.973V56.86H116.589V57.86ZM121.438 57.1748L119.198 51.5588L118.269 51.9292L120.509 57.5452L121.438 57.1748ZM118.266 51.5657L116.122 57.1817L117.057 57.5383L119.201 51.9223L118.266 51.5657ZM139.166 62V62.5H139.666V62H139.166ZM135.934 62L135.532 62.2973L135.682 62.5H135.934V62ZM131.982 56.656L132.384 56.3587L132.234 56.156H131.982V56.656ZM131.086 56.656V56.156H130.586V56.656H131.086ZM131.086 61.04H130.586V61.4398L130.976 61.5278L131.086 61.04ZM132.718 61.408H133.218V61.0082L132.828 60.9202L132.718 61.408ZM132.718 62V62.5H133.218V62H132.718ZM127.854 62H127.354V62.5H127.854V62ZM127.854 61.408L127.739 60.9215L127.354 61.0127V61.408H127.854ZM129.406 61.04L129.521 61.5265L129.906 61.4353V61.04H129.406ZM129.406 50.96H129.906V50.5647L129.521 50.4735L129.406 50.96ZM127.854 50.592H127.354V50.9873L127.739 51.0785L127.854 50.592ZM127.854 50V49.5H127.354V50H127.854ZM136.318 50.768L136.033 51.1785V51.1785L136.318 50.768ZM136.43 55.76L136.748 56.1462L136.751 56.1431L136.43 55.76ZM133.822 56.576V56.076H132.779L133.432 56.8892L133.822 56.576ZM137.422 61.056L137.032 61.3692L137.146 61.5103L137.323 61.5461L137.422 61.056ZM139.166 61.408H139.666V60.9988L139.265 60.9179L139.166 61.408ZM131.086 50.64V50.14H130.586V50.64H131.086ZM131.086 56.032H130.586V56.532H131.086V56.032ZM134.894 55.392L134.549 55.0299L134.545 55.0341L134.894 55.392ZM134.91 51.28L134.561 51.6379L134.91 51.28ZM139.166 61.5H135.934V62.5H139.166V61.5ZM136.336 61.7027L132.384 56.3587L131.58 56.9533L135.532 62.2973L136.336 61.7027ZM131.982 56.156H131.086V57.156H131.982V56.156ZM130.586 56.656V61.04H131.586V56.656H130.586ZM130.976 61.5278L132.608 61.8958L132.828 60.9202L131.196 60.5522L130.976 61.5278ZM132.218 61.408V62H133.218V61.408H132.218ZM132.718 61.5H127.854V62.5H132.718V61.5ZM128.354 62V61.408H127.354V62H128.354ZM127.969 61.8945L129.521 61.5265L129.291 60.5535L127.739 60.9215L127.969 61.8945ZM129.906 61.04V50.96H128.906V61.04H129.906ZM129.521 50.4735L127.969 50.1055L127.739 51.0785L129.291 51.4465L129.521 50.4735ZM128.354 50.592V50H127.354V50.592H128.354ZM127.854 50.5H132.67V49.5H127.854V50.5ZM132.67 50.5C134.342 50.5 135.427 50.7572 136.033 51.1785L136.604 50.3575C135.737 49.7548 134.391 49.5 132.67 49.5V50.5ZM136.033 51.1785C136.599 51.5726 136.922 52.2171 136.922 53.232H137.922C137.922 51.9856 137.509 50.9874 136.604 50.3575L136.033 51.1785ZM136.922 53.232C136.922 54.2639 136.624 54.9448 136.109 55.3769L136.751 56.1431C137.559 55.4659 137.922 54.4615 137.922 53.232H136.922ZM136.112 55.3739C135.562 55.8269 134.814 56.076 133.822 56.076V57.076C134.985 57.076 135.976 56.7811 136.748 56.1461L136.112 55.3739ZM133.432 56.8892L137.032 61.3692L137.812 60.7428L134.212 56.2628L133.432 56.8892ZM137.323 61.5461L139.067 61.8981L139.265 60.9179L137.521 60.5659L137.323 61.5461ZM138.666 61.408V62H139.666V61.408H138.666ZM130.586 50.64V56.032H131.586V50.64H130.586ZM131.086 56.532H132.878V55.532H131.086V56.532ZM132.878 56.532C133.853 56.532 134.676 56.3035 135.243 55.7499L134.545 55.0341C134.238 55.3338 133.717 55.532 132.878 55.532V56.532ZM135.239 55.7541C135.827 55.1937 136.066 54.3494 136.066 53.344H135.066C135.066 54.216 134.857 54.737 134.549 55.0299L135.239 55.7541ZM136.066 53.344C136.066 52.3329 135.835 51.4839 135.259 50.9221L134.561 51.6379C134.86 51.9295 135.066 52.4564 135.066 53.344H136.066ZM135.259 50.9221C134.691 50.3676 133.861 50.14 132.878 50.14V51.14C133.729 51.14 134.255 51.3391 134.561 51.6379L135.259 50.9221ZM132.878 50.14H131.086V51.14H132.878V50.14ZM140.761 62H140.261V62.5H140.761V62ZM140.761 61.408L140.641 60.9226L140.261 61.0165V61.408H140.761ZM142.185 61.056L142.305 61.5414L142.545 61.482L142.644 61.2549L142.185 61.056ZM147.033 49.872V49.372H146.705L146.574 49.6731L147.033 49.872ZM147.849 49.872L148.311 49.6815L148.184 49.372H147.849V49.872ZM152.457 61.056L151.995 61.2465L152.089 61.4766L152.33 61.5397L152.457 61.056ZM153.801 61.408H154.301V61.0221L153.928 60.9243L153.801 61.408ZM153.801 62V62.5H154.301V62H153.801ZM149.257 62H148.757V62.5H149.257V62ZM149.257 61.408L149.14 60.922L148.757 61.0143V61.408H149.257ZM150.649 61.072L150.766 61.558L151.331 61.4217L151.112 60.8834L150.649 61.072ZM149.385 57.968L149.848 57.7794L149.721 57.468H149.385V57.968ZM144.553 57.968V57.468H144.21L144.087 57.7877L144.553 57.968ZM143.353 61.072L142.887 60.8917L142.679 61.4282L143.239 61.5589L143.353 61.072ZM144.793 61.408H145.293V61.0112L144.907 60.9211L144.793 61.408ZM144.793 62V62.5H145.293V62H144.793ZM144.777 57.36L144.31 57.1817L144.051 57.86H144.777V57.36ZM149.161 57.36V57.86H149.899L149.625 57.1748L149.161 57.36ZM146.921 51.744L147.385 51.5588L146.911 50.3688L146.454 51.5657L146.921 51.744ZM141.261 62V61.408H140.261V62H141.261ZM140.881 61.8934L142.305 61.5414L142.065 60.5706L140.641 60.9226L140.881 61.8934ZM142.644 61.2549L147.492 50.0709L146.574 49.6731L141.726 60.8571L142.644 61.2549ZM147.033 50.372H147.849V49.372H147.033V50.372ZM147.387 50.0625L151.995 61.2465L152.919 60.8655L148.311 49.6815L147.387 50.0625ZM152.33 61.5397L153.674 61.8917L153.928 60.9243L152.584 60.5723L152.33 61.5397ZM153.301 61.408V62H154.301V61.408H153.301ZM153.801 61.5H149.257V62.5H153.801V61.5ZM149.757 62V61.408H148.757V62H149.757ZM149.374 61.894L150.766 61.558L150.532 60.586L149.14 60.922L149.374 61.894ZM151.112 60.8834L149.848 57.7794L148.922 58.1566L150.186 61.2606L151.112 60.8834ZM149.385 57.468H144.553V58.468H149.385V57.468ZM144.087 57.7877L142.887 60.8917L143.819 61.2523L145.019 58.1483L144.087 57.7877ZM143.239 61.5589L144.679 61.8949L144.907 60.9211L143.467 60.5851L143.239 61.5589ZM144.293 61.408V62H145.293V61.408H144.293ZM144.793 61.5H140.761V62.5H144.793V61.5ZM144.777 57.86H149.161V56.86H144.777V57.86ZM149.625 57.1748L147.385 51.5588L146.457 51.9292L148.697 57.5452L149.625 57.1748ZM146.454 51.5657L144.31 57.1817L145.244 57.5383L147.388 51.9223L146.454 51.5657ZM156.648 62H156.148V62.5H156.648V62ZM156.648 61.408L156.533 60.9215L156.148 61.0127V61.408H156.648ZM158.2 61.04L158.315 61.5265L158.7 61.4353V61.04H158.2ZM158.2 50.688H158.7V50.188H158.2V50.688ZM155.272 50.688V50.188H154.888L154.789 50.559L155.272 50.688ZM154.648 53.024V53.524H155.032L155.131 53.153L154.648 53.024ZM153.816 53.024H153.316V53.524H153.816V53.024ZM153.816 50V49.5H153.316V50H153.816ZM164.312 50H164.812V49.5H164.312V50ZM164.312 53.024V53.524H164.812V53.024H164.312ZM163.48 53.024L162.997 53.153L163.096 53.524H163.48V53.024ZM162.856 50.688L163.339 50.559L163.24 50.188H162.856V50.688ZM159.88 50.688V50.188H159.38V50.688H159.88ZM159.88 61.056H159.38V61.4597L159.775 61.5448L159.88 61.056ZM161.512 61.408H162.012V61.0043L161.617 60.9192L161.512 61.408ZM161.512 62V62.5H162.012V62H161.512ZM157.148 62V61.408H156.148V62H157.148ZM156.763 61.8945L158.315 61.5265L158.085 60.5535L156.533 60.9215L156.763 61.8945ZM158.7 61.04V50.688H157.7V61.04H158.7ZM158.2 50.188H155.272V51.188H158.2V50.188ZM154.789 50.559L154.165 52.895L155.131 53.153L155.755 50.817L154.789 50.559ZM154.648 52.524H153.816V53.524H154.648V52.524ZM154.316 53.024V50H153.316V53.024H154.316ZM153.816 50.5H164.312V49.5H153.816V50.5ZM163.812 50V53.024H164.812V50H163.812ZM164.312 52.524H163.48V53.524H164.312V52.524ZM163.963 52.895L163.339 50.559L162.373 50.817L162.997 53.153L163.963 52.895ZM162.856 50.188H159.88V51.188H162.856V50.188ZM159.38 50.688V61.056H160.38V50.688H159.38ZM159.775 61.5448L161.407 61.8968L161.617 60.9192L159.985 60.5672L159.775 61.5448ZM161.012 61.408V62H162.012V61.408H161.012ZM161.512 61.5H156.648V62.5H161.512V61.5Z" fill="black"/>
</svg>
