<svg width="242" height="50" viewBox="0 0 242 50" fill="none" xmlns="http://www.w3.org/2000/svg">
<g clip-path="url(#clip0_3266_7691)">
<path d="M35.3236 28.5349L25.7998 22.4588C25.557 22.3038 25.2809 22.2222 24.9998 22.2222C24.7187 22.2222 24.4426 22.3038 24.1998 22.4588L14.676 28.5349C14.4363 28.6879 14.2375 28.9069 14.0994 29.1701C13.9612 29.4332 13.8886 29.7314 13.8887 30.0349V42.1872C13.8886 42.4907 13.9612 42.7889 14.0994 43.0521C14.2375 43.3152 14.4363 43.5342 14.676 43.6872L24.1998 49.7633C24.4426 49.9183 24.7187 49.9999 24.9998 49.9999C25.2809 49.9999 25.557 49.9183 25.7998 49.7633L35.3236 43.6872C35.5632 43.5342 35.762 43.3152 35.9002 43.0521C36.0383 42.7889 36.111 42.4907 36.1109 42.1872V30.0349C36.111 29.7314 36.0383 29.4332 35.9002 29.1701C35.762 28.9069 35.5632 28.6879 35.3236 28.5349ZM32.9363 39.295L28.9172 36.6579C28.9379 36.4774 28.968 36.2986 28.968 36.1111C28.9666 35.2676 28.7407 34.4429 28.3179 33.7376C27.8951 33.0322 27.2937 32.4768 26.5871 32.139V26.9829L32.9363 31.0314V39.295ZM23.4125 26.9812V32.1372C22.7056 32.4751 22.104 33.0309 21.6812 33.7366C21.2584 34.4423 21.0326 35.2673 21.0315 36.1111C21.0315 36.2986 21.0617 36.4756 21.0823 36.6579L17.0633 39.295V31.0314L23.4125 26.9812ZM24.9998 46.253L18.7268 42.2515L22.7061 39.6404C23.3569 40.1456 24.1442 40.4512 24.9998 40.4512C25.8553 40.4512 26.6442 40.1456 27.2934 39.6404L31.2728 42.2515L24.9998 46.253Z" fill="#2A4713"/>
<path d="M40.7143 12.5084C39.1607 5.29067 32.6429 0 25 0C17.3571 0 10.8393 5.29067 9.28571 12.5084C3.98214 13.5595 0 18.2195 0 23.6504C0 29.0286 3.82143 33.5134 8.92857 34.7047V31.0082C5.82143 29.9221 3.57143 27.084 3.57143 23.6504C3.57143 19.5685 6.82143 16.0998 10.9643 15.7844L12.4286 15.6793L12.6071 14.2603C13.375 8.12871 18.6964 3.50376 25 3.50376C31.3036 3.50376 36.625 8.12871 37.3929 14.2603L37.5714 15.6793L39.0357 15.7844C43.1786 16.1173 46.4286 19.5685 46.4286 23.6504C46.4286 27.0665 44.1786 29.9396 41.0714 31.0258V34.7222C46.1786 33.5309 50 29.0111 50 23.6504C50 18.202 46.0179 13.5595 40.7143 12.5084Z" fill="#2A4713"/>
</g>
<path d="M60.7148 29.6992C60.7148 29.2383 60.8516 28.9102 61.125 28.7148C61.3984 28.5117 61.6641 28.4102 61.9219 28.4102H63.3164C64.0195 28.4102 64.5547 28.793 64.9219 29.5586C65.2891 30.3242 66.1133 30.707 67.3945 30.707L71.4961 30.7891C72.8711 30.7891 73.5586 30.3398 73.5586 29.4414C73.5586 28.7617 72.7188 28.2266 71.0391 27.8359C70.2891 27.6562 69.4609 27.4805 68.5547 27.3086C67.6484 27.1289 66.7461 26.9062 65.8477 26.6406C64.957 26.375 64.1367 26.0625 63.3867 25.7031C62.6367 25.3438 62.0273 24.8516 61.5586 24.2266C61.0977 23.5938 60.8672 22.8516 60.8672 22C60.8672 20.4297 61.4258 19.2227 62.543 18.3789C63.6602 17.5273 65.582 17.1016 68.3086 17.1016L71.2852 17.1719C72.8867 17.1719 74.3281 17.5859 75.6094 18.4141C76.8984 19.2344 77.543 20.2617 77.543 21.4961C77.543 21.957 77.4062 22.2891 77.1328 22.4922C76.8594 22.6953 76.5977 22.7969 76.3477 22.7969H74.9531C74.25 22.7969 73.7148 22.4141 73.3477 21.6484C72.9805 20.875 72.1562 20.4883 70.875 20.4883L67.3477 20.418C65.9727 20.418 65.2852 20.8672 65.2852 21.7656C65.2852 22.2578 65.7188 22.6602 66.5859 22.9727C67.4609 23.2852 68.5156 23.5625 69.75 23.8047C70.9922 24.0391 72.2383 24.3242 73.4883 24.6602C74.7383 24.9961 75.7969 25.5508 76.6641 26.3242C77.5391 27.0898 77.9766 28.0469 77.9766 29.1953C77.9766 30.7656 77.4141 31.9766 76.2891 32.8281C75.1719 33.6719 73.2539 34.0938 70.5352 34.0938L66.9844 34.0234C65.3828 34.0234 63.9375 33.6133 62.6484 32.793C61.3594 31.9648 60.7148 30.9336 60.7148 29.6992ZM80.3789 32.9219V18.3086C80.3789 18.0039 80.4883 17.7422 80.707 17.5234C80.9258 17.3047 81.1875 17.1953 81.4922 17.1953H83.6719C83.9922 17.1953 84.2578 17.3047 84.4688 17.5234C84.6875 17.7422 84.7969 18.0039 84.7969 18.3086V32.8984C84.7969 33.2031 84.6836 33.4648 84.457 33.6836C84.2383 33.8945 83.9766 34 83.6719 34H81.4922C81.1875 34 80.9258 33.8984 80.707 33.6953C80.4883 33.4844 80.3789 33.2266 80.3789 32.9219ZM86.7773 32.9219L89.7188 21.7656C90.5156 18.7266 93.1094 17.2031 97.5 17.1953H103.816C104.105 17.1953 104.344 17.3047 104.531 17.5234C104.727 17.7422 104.824 17.9961 104.824 18.2852V32.9219C104.824 33.2266 104.715 33.4844 104.496 33.6953C104.277 33.8984 104.016 34 103.711 34H101.508C101.188 34 100.922 33.8984 100.711 33.6953C100.508 33.4844 100.406 33.2188 100.406 32.8984V29.9453H92.0742L91.2891 32.8984C91.2109 33.2188 91.0352 33.4844 90.7617 33.6953C90.4883 33.8984 90.1992 34 89.8945 34H87.5859C87.2812 34 87.0625 33.9141 86.9297 33.7422C86.7969 33.5625 86.7305 33.4062 86.7305 33.2734C86.7383 33.1406 86.7539 33.0234 86.7773 32.9219ZM92.9414 26.6289H100.406V20.5117H97.0664C96.3164 20.5117 95.6602 20.7266 95.0977 21.1562C94.543 21.5781 94.168 22.1484 93.9727 22.8672L92.9414 26.6289ZM108.176 32.8984V18.3086C108.176 18.0039 108.281 17.7422 108.492 17.5234C108.703 17.3047 108.961 17.1953 109.266 17.1953H118.207C122.934 17.1953 125.297 19.375 125.297 23.7344C125.297 28.0859 122.934 30.2617 118.207 30.2617H112.594V32.8984C112.594 33.2031 112.484 33.4648 112.266 33.6836C112.055 33.8945 111.797 34 111.492 34H109.289C108.984 34 108.723 33.8945 108.504 33.6836C108.285 33.4648 108.176 33.2031 108.176 32.8984ZM112.594 26.9453H116.871C118.184 26.9453 119.18 26.7266 119.859 26.2891C120.539 25.8438 120.879 24.9922 120.879 23.7344C120.879 22.4688 120.539 21.6172 119.859 21.1797C119.18 20.7344 118.184 20.5117 116.871 20.5117H112.594V26.9453Z" fill="#2A4713"/>
<path d="M142.969 32.2656C141.375 33.6641 139.031 34.3633 135.938 34.3633C132.852 34.3633 130.508 33.6641 128.906 32.2656C127.305 30.8594 126.504 28.6367 126.504 25.5977C126.504 22.5586 127.305 20.3398 128.906 18.9414C130.508 17.543 132.852 16.8438 135.938 16.8438C139.031 16.8438 141.375 17.543 142.969 18.9414C144.57 20.3398 145.371 22.5586 145.371 25.5977C145.371 28.6367 144.57 30.8594 142.969 32.2656ZM139.77 21.4141C138.98 20.4766 137.703 20.0078 135.938 20.0078C134.18 20.0078 132.902 20.4766 132.105 21.4141C131.316 22.3516 130.922 23.75 130.922 25.6094C130.922 27.4609 131.316 28.8555 132.105 29.793C132.902 30.7227 134.18 31.1875 135.938 31.1875C137.703 31.1875 138.98 30.7227 139.77 29.793C140.559 28.8555 140.953 27.4609 140.953 25.6094C140.953 23.75 140.559 22.3516 139.77 21.4141ZM147.785 32.8984V18.3086C147.785 18.0039 147.891 17.7422 148.102 17.5234C148.312 17.3047 148.57 17.1953 148.875 17.1953H157.816C162.543 17.1953 164.906 19.375 164.906 23.7344C164.906 28.0859 162.543 30.2617 157.816 30.2617H152.203V32.8984C152.203 33.2031 152.094 33.4648 151.875 33.6836C151.664 33.8945 151.406 34 151.102 34H148.898C148.594 34 148.332 33.8945 148.113 33.6836C147.895 33.4648 147.785 33.2031 147.785 32.8984ZM152.203 26.9453H156.48C157.793 26.9453 158.789 26.7266 159.469 26.2891C160.148 25.8438 160.488 24.9922 160.488 23.7344C160.488 22.4688 160.148 21.6172 159.469 21.1797C158.789 20.7344 157.793 20.5117 156.48 20.5117H152.203V26.9453ZM165.34 32.9219L168.281 21.7656C169.078 18.7266 171.672 17.2031 176.062 17.1953H182.379C182.668 17.1953 182.906 17.3047 183.094 17.5234C183.289 17.7422 183.387 17.9961 183.387 18.2852V32.9219C183.387 33.2266 183.277 33.4844 183.059 33.6953C182.84 33.8984 182.578 34 182.273 34H180.07C179.75 34 179.484 33.8984 179.273 33.6953C179.07 33.4844 178.969 33.2188 178.969 32.8984V29.9453H170.637L169.852 32.8984C169.773 33.2188 169.598 33.4844 169.324 33.6953C169.051 33.8984 168.762 34 168.457 34H166.148C165.844 34 165.625 33.9141 165.492 33.7422C165.359 33.5625 165.293 33.4062 165.293 33.2734C165.301 33.1406 165.316 33.0234 165.34 32.9219ZM171.504 26.6289H178.969V20.5117H175.629C174.879 20.5117 174.223 20.7266 173.66 21.1562C173.105 21.5781 172.73 22.1484 172.535 22.8672L171.504 26.6289Z" fill="#93D076"/>
<defs>
<clipPath id="clip0_3266_7691">
<rect width="50" height="50" fill="white"/>
</clipPath>
</defs>
</svg>
